<?xml version="1.0" standalone="no"?>
<!DOCTYPE svg PUBLIC "-//W3C//DTD SVG 20010904//EN"
 "http://www.w3.org/TR/2001/REC-SVG-20010904/DTD/svg10.dtd">
<svg version="1.0" xmlns="http://www.w3.org/2000/svg"
 width="628.000000pt" height="628.000000pt" viewBox="0 0 628.000000 628.000000"
 preserveAspectRatio="xMidYMid meet">
<metadata>
Created by potrace 1.11, written by Peter Selinger 2001-2013
</metadata>
<g transform="translate(0.000000,628.000000) scale(0.100000,-0.100000)"
fill="#000000" stroke="none">
<path d="M5 6173 c3 -21 9 -60 15 -88 5 -27 12 -68 15 -90 3 -22 8 -53 11 -70
3 -16 6 -41 8 -55 2 -14 6 -41 9 -60 4 -19 9 -51 12 -70 17 -118 42 -277 49
-320 3 -14 7 -47 11 -75 11 -88 15 -119 21 -145 8 -32 11 -52 20 -125 4 -33 9
-69 10 -80 2 -11 6 -36 8 -55 2 -19 7 -46 10 -59 3 -13 8 -49 11 -80 3 -31 7
-63 10 -71 2 -8 6 -40 10 -70 3 -30 7 -64 9 -75 2 -11 7 -49 11 -85 4 -36 8
-67 10 -70 2 -3 6 -32 10 -65 9 -84 13 -114 19 -160 4 -22 9 -65 12 -95 7 -62
9 -85 18 -152 8 -60 13 -114 22 -203 3 -38 8 -83 10 -100 2 -16 6 -61 9 -100
3 -38 8 -90 11 -115 22 -206 21 -549 -2 -815 -3 -33 -7 -82 -9 -110 -7 -91
-15 -170 -20 -205 -2 -19 -7 -60 -11 -90 -3 -30 -8 -66 -10 -80 -2 -14 -6 -54
-9 -90 -3 -36 -8 -76 -10 -90 -3 -14 -9 -61 -15 -105 -6 -44 -13 -91 -15 -105
-2 -14 -7 -45 -10 -69 -3 -23 -7 -55 -9 -70 -7 -38 -26 -171 -30 -206 -2 -16
-7 -46 -11 -65 -3 -19 -8 -48 -10 -65 -2 -16 -4 -30 -5 -30 -1 0 -3 -12 -5
-28 -6 -46 -27 -181 -31 -202 -8 -40 -13 -71 -18 -110 -3 -22 -8 -51 -11 -65
-3 -14 -7 -40 -10 -59 -2 -19 -16 -98 -30 -175 -14 -78 -27 -154 -30 -171 -3
-16 -7 -40 -9 -51 -2 -12 -7 -37 -10 -55 -3 -19 -8 -45 -11 -59 -2 -13 -7 -40
-10 -60 -6 -40 -12 -72 -21 -113 l-6 -28 94 6 c199 12 237 14 353 20 66 3 156
8 200 10 112 7 294 16 400 20 85 3 389 14 555 20 369 14 799 19 1570 19 806 0
1155 -4 1555 -19 66 -3 185 -7 265 -10 80 -3 195 -7 255 -10 61 -3 157 -7 215
-10 58 -2 148 -7 200 -10 52 -3 136 -8 186 -10 50 -3 129 -7 175 -10 46 -3
119 -8 162 -10 l79 -4 -7 42 c-8 48 -8 46 -29 147 -8 41 -17 86 -20 100 -2 14
-7 36 -10 50 -3 14 -8 36 -10 50 -3 14 -14 72 -26 130 -12 58 -23 117 -25 133
-11 66 -23 132 -31 167 -13 54 -15 66 -19 95 -2 17 -6 44 -9 60 -4 17 -8 44
-11 60 -3 17 -7 41 -10 55 -6 27 -14 78 -20 125 -2 17 -7 41 -10 55 -6 29 -11
57 -26 155 -6 39 -13 81 -16 95 -3 14 -7 36 -8 50 -3 30 -25 175 -31 210 -5
24 -8 54 -18 145 -3 22 -12 90 -20 150 -8 61 -18 137 -21 170 -9 91 -15 156
-20 199 -3 21 -7 84 -11 140 -3 55 -8 124 -10 151 -12 118 -6 581 10 765 2 20
7 74 11 120 3 47 9 99 11 115 4 30 14 125 19 180 4 46 16 147 21 175 2 14 6
43 9 65 3 22 8 56 10 76 3 20 8 54 10 75 2 21 7 53 9 69 14 95 17 113 22 145
10 59 13 83 18 125 3 22 8 51 11 65 3 14 8 43 10 65 3 22 8 47 10 55 2 8 7 33
10 55 2 22 6 49 9 60 2 11 7 40 11 65 4 25 10 56 12 70 3 14 6 34 8 45 1 11
10 63 20 115 9 52 18 106 21 120 6 39 42 232 48 265 4 17 9 45 12 64 3 18 7
41 9 50 10 46 45 226 50 254 3 17 8 39 10 47 2 8 7 34 10 58 6 42 6 43 -22 37
-53 -11 -68 -14 -108 -20 -22 -3 -65 -10 -95 -15 -30 -5 -68 -11 -85 -13 -27
-4 -113 -20 -174 -32 -13 -2 -49 -7 -80 -11 -31 -3 -59 -8 -63 -10 -3 -2 -28
-7 -55 -10 -26 -3 -59 -7 -73 -10 -14 -2 -54 -9 -90 -14 -36 -5 -75 -12 -87
-14 -12 -3 -46 -7 -75 -10 -29 -4 -62 -8 -73 -10 -11 -2 -42 -7 -70 -10 -27
-4 -61 -9 -75 -11 -14 -3 -41 -7 -60 -10 -19 -2 -51 -7 -70 -9 -19 -3 -57 -8
-85 -11 -27 -4 -63 -9 -80 -11 -16 -2 -52 -7 -80 -10 -51 -5 -61 -6 -150 -18
-27 -3 -72 -8 -100 -11 -27 -3 -70 -7 -95 -10 -25 -3 -67 -7 -95 -10 -27 -3
-70 -7 -95 -10 -25 -2 -76 -7 -115 -10 -38 -3 -95 -8 -125 -11 -227 -21 -378
-27 -700 -27 -318 -1 -515 7 -745 28 -33 3 -87 7 -120 10 -78 6 -170 15 -220
21 -22 2 -62 6 -90 8 -59 5 -149 15 -187 22 -15 2 -55 6 -89 9 -34 3 -69 7
-78 9 -9 3 -43 7 -76 11 -33 3 -71 7 -85 10 -34 6 -119 17 -150 20 -14 1 -43
5 -65 9 -22 3 -58 9 -80 11 -22 2 -56 7 -75 10 -100 14 -117 17 -145 20 -16 2
-43 6 -60 9 -48 9 -98 18 -130 22 -43 5 -175 24 -210 30 -16 3 -43 7 -60 9
-34 5 -159 25 -190 30 -59 11 -76 14 -145 26 -41 7 -86 13 -100 14 -14 2 -25
3 -25 5 0 1 -12 4 -27 6 -26 4 -27 3 -23 -33z"/>
</g>
</svg>
