<?xml version="1.0" encoding="UTF-8"?>
<svg width="80px" height="80px" viewBox="0 0 80 80" version="1.1" xmlns="http://www.w3.org/2000/svg" xmlns:xlink="http://www.w3.org/1999/xlink">
    <!-- Generator: Sketch 47.1 (45422) - http://www.bohemiancoding.com/sketch -->
    <title>coda</title>
    <desc>Created with Sketch.</desc>
    <defs></defs>
    <g id="Symbols" stroke="none" stroke-width="1" fill="none" fill-rule="evenodd">
        <g id="coda" fill-rule="nonzero" fill="#000000">
            <path d="M80,34.2857143 L69.0281905,34.2857143 C66.7219048,22.5470476 57.4529524,13.2780952 45.7142857,10.9714286 L45.7142857,0 L34.2857143,0 L34.2857143,10.9714286 C22.5470476,13.2780952 13.2780952,22.5470476 10.9718095,34.2857143 L0,34.2857143 L0,45.7142857 L10.9718095,45.7142857 C13.2784762,57.4529524 22.5470476,66.7219048 34.2857143,69.0285714 L34.2857143,80 L45.7142857,80 L45.7142857,69.0285714 C57.4529524,66.7219048 66.7219048,57.4533333 69.0281905,45.7142857 L80,45.7142857 L80,34.2857143 Z M57.232381,34.2857143 L45.7142857,34.2857143 L45.7142857,22.767619 C51.1367619,24.5706667 55.4293333,28.8632381 57.232381,34.2857143 Z M34.2857143,22.767619 L34.2857143,34.2857143 L22.767619,34.2857143 C24.5706667,28.8632381 28.8632381,24.5706667 34.2857143,22.767619 Z M22.767619,45.7142857 L34.2857143,45.7142857 L34.2857143,57.232381 C28.8632381,55.4293333 24.5706667,51.1367619 22.767619,45.7142857 Z M45.7142857,57.232381 L45.7142857,45.7142857 L57.232381,45.7142857 C55.4293333,51.1367619 51.1367619,55.4293333 45.7142857,57.232381 Z" id="XMLID_812_"></path>
        </g>
    </g>
</svg>