<?xml version="1.0" encoding="UTF-8"?>
<svg width="54px" height="80px" viewBox="0 0 54 80" version="1.1" xmlns="http://www.w3.org/2000/svg" xmlns:xlink="http://www.w3.org/1999/xlink">
    <!-- Generator: Sketch 47.1 (45422) - http://www.bohemiancoding.com/sketch -->
    <title>segno</title>
    <desc>Created with Sketch.</desc>
    <defs></defs>
    <g id="Symbols" stroke="none" stroke-width="1" fill="none" fill-rule="evenodd">
        <g id="segno" fill="#000000">
            <path d="M9.25050029,1.57304163 C7.74102416,2.32849873 6.38675617,3.297217 5.18769047,4.47919644 C4.49033213,5.16356008 3.88743392,5.84786599 3.37899582,6.5321719 C2.87060448,7.21651629 2.42968019,7.95415674 2.05621908,8.74511247 C1.0281685,10.6692346 0.384776804,12.6866537 0.126045925,14.7973698 C-0.132632355,16.9081243 0.00684476698,19.0855085 0.544475343,21.3295224 C0.699726338,22.1094149 0.902191808,22.8426108 1.1518737,23.5291294 C1.40160624,24.2156864 1.73904869,24.9755496 2.16420105,25.8087381 C2.80086981,27.1751565 3.57923849,28.4682688 4.49930904,29.6880365 C5.41942439,30.9078234 6.54873205,32.1742685 7.88723397,33.4873716 C9.45748344,35.0337652 11.2571778,36.5534915 13.286321,38.0465506 C15.3154953,39.5396289 17.5471175,41.0060207 19.9811877,42.4457645 C20.3658817,42.6679532 20.676333,42.8634747 20.9125223,43.0323289 C21.1487505,43.2011831 21.2702154,43.2900547 21.2769753,43.2989438 C21.1436854,43.5350049 20.046995,45.429112 17.9869041,48.981265 C15.9268132,52.5333987 13.5410991,56.6471035 10.8297325,61.3223987 C8.11839904,65.9976553 5.71918254,70.1380274 3.63207717,73.7435149 C1.54501856,77.348964 0.40783857,79.3230536 0.220529422,79.665803 L0.0045674225,79.9857524 L3.78392676,79.9857524 L7.67127002,79.9857524 L17.2816481,63.3487069 C19.9474464,58.6917479 22.2015694,54.7813377 24.0439976,51.617457 C25.8864452,48.4535763 26.8717815,46.782774 27.0000063,46.6050307 C27.1349716,46.5472516 27.8638582,46.9560727 29.1866271,47.8314748 C30.5093961,48.7068576 31.9401684,49.7555585 33.4789052,50.9775773 C34.3967393,51.7196623 35.395576,52.6083788 36.4753957,53.6437652 C37.5552155,54.6791324 38.3920665,55.5678681 38.9859683,56.3099723 C39.8610609,57.3897465 40.6484298,58.50956 41.3480752,59.6693552 C42.0477012,60.8291312 42.5921014,61.9489447 42.9812955,63.0287574 C43.5301959,64.5751317 43.8901294,66.1481926 44.0611153,67.7479207 C44.2320622,69.3476104 44.1600794,70.6540371 43.8451474,71.66722 C43.4514532,72.853644 42.8350507,73.8401405 41.9959593,74.6267094 C41.1568484,75.4132013 40.1895128,75.919764 39.0939523,76.1464357 C38.1445977,76.3019178 37.1547808,76.2308243 36.1244626,75.9331361 C35.0941249,75.6353708 34.2122725,75.1376781 33.4789052,74.4400578 C33.1796945,74.1845253 32.8602624,73.8157051 32.5205698,73.3335971 C32.1808773,72.8514314 31.996391,72.5092592 31.9671693,72.307119 C31.9716499,72.2493207 32.0166514,72.178208 32.1021346,72.0938193 C32.1876178,72.0093537 32.2866014,71.9382603 32.3990855,71.8805197 C32.7815196,71.711627 33.1504533,71.4627902 33.5059061,71.1339901 C33.8613393,70.8051323 34.1762908,70.4496458 34.450741,70.0675111 C35.8837342,67.9767474 36.4191537,65.7593623 36.0569605,63.4153558 C35.6947672,61.0713108 34.583466,59.3071922 32.7230373,58.1229809 C32.1988584,57.8052441 31.6544581,57.5874999 31.0897975,57.4697483 C30.5251563,57.3519775 29.8457713,57.3208849 29.0516618,57.3764321 C28.2597927,57.3697557 27.6028889,57.4097566 27.0809894,57.4964156 C26.5590703,57.5830553 26.0641521,57.7563541 25.5962348,58.0163311 C24.5659166,58.5717644 23.7920481,59.4605001 23.2746292,60.682519 C22.7572297,61.9044993 22.5232613,63.3264649 22.5727434,64.9484157 C22.7459697,67.4834992 23.4253547,69.8253123 24.6108985,71.9738359 C25.7964619,74.1223209 27.4206819,75.9042177 29.483578,77.3195453 C32.6555351,79.3902605 36.0029783,80.261218 39.525888,79.9324179 C43.0487782,79.6035409 46.180234,78.12826 48.9202943,75.5065368 C49.5659186,74.8221924 50.1373197,74.1378672 50.6344977,73.4535805 C51.1316367,72.7692169 51.5680726,72.0315765 51.9437857,71.24064 C52.9718246,69.3164986 53.615228,67.2990987 53.8739569,65.1883827 C54.1326274,63.0776281 53.993162,60.9002439 53.4555216,58.6562108 C53.3002765,57.8785502 53.0978091,57.1409097 52.8481194,56.4432702 C52.5983907,55.7455922 52.260958,54.9546364 51.8358018,54.0703645 C51.1991389,52.7550295 50.4207702,51.493029 49.5006957,50.2843631 C48.5805823,49.0756779 47.451261,47.8136966 46.1127708,46.4983809 C44.5425135,44.9519873 42.742827,43.4322609 40.7136721,41.9391826 C38.6845173,40.4461235 36.452895,38.9797125 34.0188053,37.5399687 C33.6341114,37.3177992 33.3236796,37.1222778 33.0874708,36.9534043 C32.8512621,36.7845501 32.7297777,36.6956785 32.7230373,36.6867894 C32.8563077,36.4507283 33.9529981,34.5566212 36.0131084,31.0044682 C38.0731798,27.4523345 40.4588979,23.3386297 43.1702625,18.6633345 C45.8816077,13.9880779 48.2808261,9.84772505 50.3679179,6.24221829 C52.4549901,2.63678849 53.5921623,0.662698885 53.7794734,0.319930234 L53.9954413,0 L50.2160819,0 L46.4367226,0 L36.8263484,16.6370264 C34.1065484,21.2940046 31.8254246,25.2044148 29.9829964,28.3682762 C28.1405487,31.5321569 27.1822133,33.2029785 27.1079902,33.3807218 C26.9212635,33.4384816 26.1608954,33.0296797 24.8268664,32.1542584 C23.4928373,31.2788756 22.0575843,30.2301747 20.5210879,29.0081559 C19.6032538,28.2660902 18.6044366,27.3773544 17.5245974,26.341968 C16.4447971,25.3066201 15.6079461,24.4178843 15.0140247,23.6757801 C14.1389322,22.5959867 13.351573,21.4761924 12.6519295,20.316378 C11.9523133,19.156602 11.4079053,18.0368077 11.0187034,16.9569758 C10.4698147,15.4128334 10.1098754,13.8353279 9.93888757,12.2244788 C9.76793283,10.6136874 9.83991951,9.27614895 10.1548496,8.21186335 C10.5485496,7.07654201 11.1649444,6.12115737 12.0040358,5.34570943 C12.8431583,4.57031922 13.8104998,4.06820115 14.9060408,3.83931673 C15.8553954,3.6838154 16.8452318,3.75490887 17.87555,4.05259714 C18.9058876,4.35036238 19.7877206,4.84805515 20.5210879,5.54567545 C20.8202986,5.80122713 21.1397502,6.17004735 21.4794427,6.65213612 C21.8191353,7.13430184 22.0036021,7.47647404 22.0328433,7.67863347 C22.0283431,7.73643178 21.9833612,7.80752525 21.8978585,7.89191388 C21.8123753,7.97637946 21.7133917,8.04749217 21.6009076,8.10521353 C21.2184735,8.27410621 20.8495398,8.52296222 20.4941065,8.85174306 C20.1386732,9.1806201 19.8237217,9.53610669 19.5492521,9.91822207 C18.1162589,12.0089858 17.5808589,14.2263709 17.9430326,16.5703774 C18.3052258,18.9144224 19.4165466,20.6785602 21.2769753,21.8627716 C21.8011347,22.1805084 22.345535,22.3982526 22.9101956,22.5159849 C23.4748563,22.6337557 24.1542413,22.6648675 24.9483507,22.6093011 C25.7402198,22.6159775 26.3971042,22.5759959 26.9190232,22.4893176 C27.4409228,22.4026779 27.935841,22.2293791 28.4037583,21.9694214 C29.4340765,21.4162007 30.207945,20.5230204 30.7253639,19.2898806 C31.2427828,18.0567985 31.4767317,16.6037211 31.4272497,14.9306676 C31.2540234,12.4466868 30.5746384,10.1360047 29.3890945,7.9985637 C28.2035507,5.86119962 26.5793307,4.08374743 24.516415,2.6661879 C23.8910317,2.22852534 23.1711454,1.82414876 22.3567951,1.45307741 C21.5424252,1.08206377 20.8225584,0.811004288 20.1971556,0.639879709 C19.2050789,0.371071355 18.1657604,0.188883516 17.0791807,0.0933161917 C15.9926205,-0.00219341152 14.9803029,0.00225113287 14.0421889,0.106649825 C12.3572404,0.328857804 10.7600115,0.817661484 9.25050029,1.57304163 Z" id="slur"></path>
            <path d="M41.0434021,28.9396739 C40.7325603,29.2243067 40.4539072,29.5911525 40.207387,30.0402114 C40.108779,30.2742347 40.0487454,30.4892885 40.0273234,30.6853547 C40.0058828,30.8814208 39.9973066,31.1723707 40.0016133,31.5581859 C39.9951718,31.9861758 40.0080176,32.2939954 40.0401877,32.4816267 C40.0723393,32.6692762 40.1623711,32.9011816 40.3102832,33.1773612 C40.7046968,33.8688965 41.253464,34.4086216 41.9566032,34.7965547 C42.1945285,34.893538 42.4131666,34.9525642 42.612536,34.9736514 C42.8118869,34.9947387 43.107711,35.0031736 43.5000084,34.9989379 C43.8429647,35.0031736 44.108772,34.9947387 44.2974304,34.9736514 C44.4860517,34.9525642 44.7004203,34.893538 44.9405175,34.7965547 C45.3477955,34.5983707 45.6907703,34.3622478 45.9694605,34.0881496 C46.2481136,33.8140878 46.4882109,33.476746 46.6897151,33.0761787 C46.8376086,32.7978813 46.9276404,32.570175 46.9598105,32.3930783 C46.9919435,32.2159816 47.0048079,31.9376841 46.9984035,31.5581859 C47.0026731,31.0585358 46.9426581,30.615794 46.8183399,30.2299605 C46.6939846,29.8441453 46.4796346,29.4772994 46.1752528,29.129423 C45.6843474,28.6171206 45.0712586,28.2755612 44.3360235,28.1047816 C43.6007327,27.9340202 42.9104949,27.9719773 42.2652731,28.2186347 C41.7615033,28.4147191 41.3542253,28.6550594 41.0434021,28.9396739 Z" id="right-circle"></path>
            <path d="M7.0434002,45.9396864 C6.73259223,46.2243007 6.45392279,46.5911462 6.20738816,47.040223 C6.10880067,47.2742278 6.0487783,47.4892815 6.02732106,47.6853658 C6.00590465,47.8814318 5.99733029,48.1723631 6.00159984,48.5581963 C5.9951881,48.9861858 6.00804871,49.293987 6.04018353,49.4816363 C6.07235733,49.6692674 6.16239088,49.9011726 6.31028047,50.1773703 C6.70472881,50.8688868 7.2534952,51.4086114 7.95658333,51.7965625 C8.1945436,51.8935274 8.41319253,51.9525536 8.61253013,51.9736591 C8.81190485,51.9947281 9.10772487,52.003163 9.49999389,51.9989456 C9.84298866,52.003163 10.1087994,51.9947281 10.2974222,51.9736591 C10.4860786,51.9525536 10.7004394,51.8935274 10.9405084,51.7965625 C11.3478118,51.5983604 11.6907917,51.3622377 11.9694482,51.0881579 C12.2481325,50.8140781 12.4882182,50.4767365 12.6897055,50.0761696 C12.8376266,49.7978724 12.9276583,49.5701664 12.9597987,49.393088 C12.9919669,49.2159732 13.0048294,48.9376942 12.9983879,48.5581963 C13.0026872,48.0585284 12.9426648,47.6157869 12.8183227,47.229972 C12.6940066,46.8441388 12.4796439,46.4772932 12.1752347,46.1294354 C11.6843596,45.6171151 11.0712827,45.275556 10.3360059,45.1047947 C9.60075885,44.9340152 8.91051276,44.9719723 8.26526581,45.2186477 C7.76153384,45.4147137 7.3542453,45.6550539 7.0434002,45.9396864 Z" id="left-circle"></path>
        </g>
    </g>
</svg>